<mxfile host="65bd71144e">
    <diagram id="pipeline" name="doc_preprocessor_hybrid_activity_workflow">
        <mxGraphModel dx="228" dy="1038" grid="1" gridSize="10" guides="1" tooltips="1" connect="1" arrows="1" fold="1" page="1" pageScale="1" pageWidth="1920" pageHeight="1080" math="0" shadow="0">
            <root>
                <mxCell id="0"/>
                <mxCell id="1" parent="0"/>
                <mxCell id="TITLE" value="doc_preprocessor_hybrid 行為ベース ワークフロー" style="text;strokeColor=none;fillColor=none;align=left;verticalAlign=top;fontStyle=1;fontSize=16;" parent="1" vertex="1">
                    <mxGeometry x="40" y="40" width="520" height="30" as="geometry"/>
                </mxCell>
                <mxCell id="3cnJW8OzbraPkvrjtHVB-4" style="edgeStyle=orthogonalEdgeStyle;rounded=0;orthogonalLoop=1;jettySize=auto;html=1;exitX=1;exitY=0.5;exitDx=0;exitDy=0;entryX=0;entryY=0.5;entryDx=0;entryDy=0;" edge="1" parent="1" source="START" target="READ_API">
                    <mxGeometry relative="1" as="geometry"/>
                </mxCell>
                <mxCell id="START" value="Start" style="ellipse;whiteSpace=wrap;html=1;fillColor=#ffffff;strokeColor=#000000;" parent="1" vertex="1">
                    <mxGeometry x="40" y="80" width="80" height="40" as="geometry"/>
                </mxCell>
                <mxCell id="3cnJW8OzbraPkvrjtHVB-5" style="edgeStyle=orthogonalEdgeStyle;rounded=0;orthogonalLoop=1;jettySize=auto;html=1;exitX=1;exitY=0.5;exitDx=0;exitDy=0;entryX=0;entryY=0.5;entryDx=0;entryDy=0;" edge="1" parent="1" source="READ_API" target="PARSE_TYPES">
                    <mxGeometry relative="1" as="geometry"/>
                </mxCell>
                <mxCell id="READ_API" value="API原文を読み込む" style="rounded=1;whiteSpace=wrap;html=1;fillColor=#ffffff;strokeColor=#000000;" parent="1" vertex="1">
                    <mxGeometry x="140" y="80" width="120" height="40" as="geometry"/>
                </mxCell>
                <mxCell id="PARSE_TYPES" value="型定義を解析する" style="rounded=1;whiteSpace=wrap;html=1;fillColor=#d5e8d4;strokeColor=#82b366;" parent="1" vertex="1">
                    <mxGeometry x="280" y="80" width="120" height="40" as="geometry"/>
                </mxCell>
                <mxCell id="PARSE_API" value="API仕様を解析する" style="rounded=1;whiteSpace=wrap;html=1;fillColor=#d5e8d4;strokeColor=#82b366;" parent="1" vertex="1">
                    <mxGeometry x="420" y="80" width="120" height="40" as="geometry"/>
                </mxCell>
                <mxCell id="3cnJW8OzbraPkvrjtHVB-7" style="edgeStyle=orthogonalEdgeStyle;rounded=0;orthogonalLoop=1;jettySize=auto;html=1;exitX=0;exitY=1;exitDx=0;exitDy=0;entryX=0.5;entryY=0;entryDx=0;entryDy=0;" edge="1" parent="1" source="POSTPROC" target="LLM_DECISION">
                    <mxGeometry relative="1" as="geometry">
                        <Array as="points">
                            <mxPoint x="560" y="130"/>
                            <mxPoint x="80" y="130"/>
                        </Array>
                    </mxGeometry>
                </mxCell>
                <mxCell id="POSTPROC" value="正規化/拡張を適用&lt;div&gt;&amp;nbsp;型の正規化/one_of&lt;/div&gt;&lt;div&gt;必須/配列/次元を付与&lt;/div&gt;" style="rounded=1;whiteSpace=wrap;html=1;fillColor=#fff2cc;strokeColor=#d6b656;" parent="1" vertex="1">
                    <mxGeometry x="560" y="80" width="120" height="40" as="geometry"/>
                </mxCell>
                <mxCell id="3cnJW8OzbraPkvrjtHVB-6" style="edgeStyle=orthogonalEdgeStyle;rounded=0;orthogonalLoop=1;jettySize=auto;html=1;exitX=1;exitY=0.5;exitDx=0;exitDy=0;entryX=0;entryY=0.5;entryDx=0;entryDy=0;" edge="1" parent="1" source="LLM_DECISION" target="CTX_BUILD">
                    <mxGeometry relative="1" as="geometry"/>
                </mxCell>
                <mxCell id="3cnJW8OzbraPkvrjtHVB-8" style="edgeStyle=orthogonalEdgeStyle;rounded=0;orthogonalLoop=1;jettySize=auto;html=1;exitX=0.5;exitY=1;exitDx=0;exitDy=0;entryX=0.5;entryY=0;entryDx=0;entryDy=0;" edge="1" parent="1" source="LLM_DECISION" target="3cnJW8OzbraPkvrjtHVB-3">
                    <mxGeometry relative="1" as="geometry"/>
                </mxCell>
                <mxCell id="LLM_DECISION" value="LLM補強を有効？" style="rhombus;whiteSpace=wrap;html=1;fillColor=#fff2cc;strokeColor=#d6b656;" parent="1" vertex="1">
                    <mxGeometry x="30" y="140" width="100" height="50" as="geometry"/>
                </mxCell>
                <mxCell id="CTX_BUILD" value="原文抜粋/型文脈を抽出" style="rounded=1;whiteSpace=wrap;html=1;fillColor=#e1f0ff;strokeColor=#6c8ebf;" parent="1" vertex="1">
                    <mxGeometry x="140" y="145" width="120" height="40" as="geometry"/>
                </mxCell>
                <mxCell id="ENRICH_TYPES" value="型定義を補強 (差分JSON)" style="rounded=1;whiteSpace=wrap;html=1;fillColor=#e1f0ff;strokeColor=#6c8ebf;" parent="1" vertex="1">
                    <mxGeometry x="280" y="145" width="120" height="40" as="geometry"/>
                </mxCell>
                <mxCell id="ENRICH_ENTRIES" value="APIエントリを補強 (差分JSON)" style="rounded=1;whiteSpace=wrap;html=1;fillColor=#e1f0ff;strokeColor=#6c8ebf;" parent="1" vertex="1">
                    <mxGeometry x="420" y="145" width="120" height="40" as="geometry"/>
                </mxCell>
                <mxCell id="e2" style="endArrow=block;html=1;" parent="1" edge="1">
                    <mxGeometry relative="1" as="geometry">
                        <mxPoint x="400" y="125" as="sourcePoint"/>
                    </mxGeometry>
                </mxCell>
                <mxCell id="e5" style="endArrow=block;html=1;" parent="1" source="PARSE_TYPES" target="PARSE_API" edge="1">
                    <mxGeometry relative="1" as="geometry"/>
                </mxCell>
                <mxCell id="e6" style="endArrow=block;html=1;" parent="1" source="PARSE_API" target="POSTPROC" edge="1">
                    <mxGeometry relative="1" as="geometry"/>
                </mxCell>
                <mxCell id="e11" style="endArrow=block;html=1;" parent="1" source="CTX_BUILD" target="ENRICH_TYPES" edge="1">
                    <mxGeometry relative="1" as="geometry"/>
                </mxCell>
                <mxCell id="e12" style="endArrow=block;html=1;" parent="1" source="ENRICH_TYPES" target="ENRICH_ENTRIES" edge="1">
                    <mxGeometry relative="1" as="geometry"/>
                </mxCell>
                <mxCell id="3cnJW8OzbraPkvrjtHVB-3" value="structured_api.json" style="rounded=1;whiteSpace=wrap;html=1;fillColor=#ffffff;strokeColor=#000000;" vertex="1" parent="1">
                    <mxGeometry x="20" y="205" width="120" height="40" as="geometry"/>
                </mxCell>
            </root>
        </mxGraphModel>
    </diagram>
</mxfile>